<?xml version="1.0" encoding="UTF-8"?>
<svg width="247px" height="38px" viewBox="0 0 247 38" version="1.1" xmlns="http://www.w3.org/2000/svg" xmlns:xlink="http://www.w3.org/1999/xlink">
    <title>UI Elements/LogoFull</title>
    <g id="Sample-Apps" stroke="none" stroke-width="1" fill="none" fill-rule="evenodd">
        <g id="0.0_Login" transform="translate(-63.000000, -136.000000)">
            <g id="FFwordmark_dark" transform="translate(63.000000, 136.000000)">
                <g id="Group" fill-rule="nonzero">
                    <g id="FFlogomark">
                        <polygon id="Fill-1" fill="#1F119D" points="21.840385 11.3127533 1.95011449 11.3127533 5.39915797 19.7788176 25.2894285 19.7788176"></polygon>
                        <path d="M12.0569415,30.0616371 L0.190666184,30.0616371 L2.85663237,36.605091 C3.2287773,37.518942 4.40634251,37.7567518 5.10058406,37.0584215 L12.0569415,30.0616371 Z" id="Fill-3" fill="#1F119D"></path>
                        <path d="M7.17447874,0.986667934 L2.07527101,9.42505062 C1.24875894,10.7927714 2.22773961,12.5435403 3.81945459,12.5435403 L29.7459087,12.5435403 C30.4589184,12.5435403 31.1200923,12.1694797 31.490271,11.5568904 L36.5893,3.11850771 C37.4158121,1.75060715 36.4368314,1.79750402e-05 34.8451165,1.79750402e-05 L8.91866232,1.79750402e-05 C8.20583142,1.79750402e-05 7.54447874,0.374078563 7.17447874,0.986667934" id="Fill-6" fill="#4B39EF"></path>
                        <path d="M5.39926522,19.7787456 L0.300057488,28.2169486 C-0.52645459,29.5848491 0.452526087,31.335618 2.04424106,31.335618 L18.4472169,31.335618 C19.1600478,31.335618 19.8214004,30.9615574 20.1915792,30.3489681 L25.2906082,21.9105855 C26.1171203,20.5426849 25.1381396,18.7920957 23.5462459,18.7920957 L7.14344879,18.7920957 C6.43061788,18.7920957 5.76926522,19.1661563 5.39926522,19.7787456" id="Fill-8" fill="#4B39EF"></path>
                    </g>
                </g>
                <path d="M53.13,32.208 L53.13,21.34 L64.036,21.34 L64.036,16.476 L53.13,16.476 L53.13,9.864 L65.252,9.864 L65.252,5 L48,5 L48,32.208 L53.13,32.208 Z M73.574,32.208 L73.574,5 L68.596,5 L68.596,32.208 L73.574,32.208 Z M84.67,32.816 C85.9366667,32.816 87.064,32.5436667 88.052,31.999 C89.04,31.4543333 89.8253333,30.7133333 90.408,29.776 L90.408,29.776 L90.712,29.776 L90.712,32.208 L95.386,32.208 L95.386,13.588 L90.408,13.588 L90.408,22.708 C90.408,23.468 90.313,24.1836667 90.123,24.855 C89.933,25.5263333 89.6543333,26.109 89.287,26.603 C88.9196667,27.097 88.4763333,27.4896667 87.957,27.781 C87.4376667,28.0723333 86.836,28.218 86.152,28.218 C85.012,28.218 84.1443333,27.895 83.549,27.249 C82.9536667,26.603 82.656,25.6086667 82.656,24.266 L82.656,24.266 L82.656,13.588 L77.678,13.588 L77.678,24.874 C77.678,27.2806667 78.2543333,29.206 79.407,30.65 C80.5596667,32.094 82.314,32.816 84.67,32.816 Z M108.078,32.512 C108.888667,32.512 109.629667,32.4423333 110.301,32.303 C110.972333,32.1636667 111.599333,31.9546667 112.182,31.676 L112.182,31.676 L110.776,27.306 C110.548,27.458 110.307333,27.5783333 110.054,27.667 C109.800667,27.7556667 109.458667,27.8 109.028,27.8 C108.369333,27.8 107.862667,27.5973333 107.508,27.192 C107.254667,26.9386667 107.083667,26.6283333 106.995,26.261 C106.906333,25.8936667 106.862,25.4946667 106.862,25.064 L106.862,25.064 L106.862,17.844 L111.422,17.844 L111.422,13.588 L106.862,13.588 L106.862,7.888 L101.884,7.888 L101.884,13.588 L98.616,13.588 L98.616,17.844 L101.884,17.844 L101.884,26.014 C101.884,28.1166667 102.479333,29.738 103.67,30.878 C104.176667,31.3846667 104.803667,31.7836667 105.551,32.075 C106.298333,32.3663333 107.140667,32.512 108.078,32.512 Z M123.126,32.512 C123.936667,32.512 124.677667,32.4423333 125.349,32.303 C126.020333,32.1636667 126.647333,31.9546667 127.23,31.676 L127.23,31.676 L125.824,27.306 C125.596,27.458 125.355333,27.5783333 125.102,27.667 C124.848667,27.7556667 124.506667,27.8 124.076,27.8 C123.417333,27.8 122.910667,27.5973333 122.556,27.192 C122.302667,26.9386667 122.131667,26.6283333 122.043,26.261 C121.954333,25.8936667 121.91,25.4946667 121.91,25.064 L121.91,25.064 L121.91,17.844 L126.47,17.844 L126.47,13.588 L121.91,13.588 L121.91,7.888 L116.932,7.888 L116.932,13.588 L113.664,13.588 L113.664,17.844 L116.932,17.844 L116.932,26.014 C116.932,28.1166667 117.527333,29.738 118.718,30.878 C119.224667,31.3846667 119.851667,31.7836667 120.599,32.075 C121.346333,32.3663333 122.188667,32.512 123.126,32.512 Z M138.744,32.816 C140.846667,32.816 142.626333,32.3473333 144.083,31.41 C145.539667,30.4726667 146.698667,29.244 147.56,27.724 L147.56,27.724 L143.418,25.672 C142.987333,26.4573333 142.398333,27.1096667 141.651,27.629 C140.903667,28.1483333 139.96,28.408 138.82,28.408 C138.237333,28.408 137.667333,28.3256667 137.11,28.161 C136.552667,27.9963333 136.039667,27.7303333 135.571,27.363 C135.102333,26.9956667 134.709667,26.5396667 134.393,25.995 C134.076333,25.4503333 133.867333,24.798 133.766,24.038 L133.766,24.038 L147.788,24.038 C147.788,23.886 147.800667,23.7466667 147.826,23.62 C147.826,23.4933333 147.838667,23.354 147.864,23.202 L147.864,23.202 L147.864,22.746 C147.864,21.3526667 147.661333,20.0606667 147.256,18.87 C146.850667,17.6793333 146.255333,16.647 145.47,15.773 C144.684667,14.899 143.709333,14.215 142.544,13.721 C141.378667,13.227 140.048667,12.98 138.554,12.98 C137.135333,12.98 135.837,13.246 134.659,13.778 C133.481,14.31 132.461333,15.0256667 131.6,15.925 C130.738667,16.8243333 130.067333,17.8756667 129.586,19.079 C129.104667,20.2823333 128.864,21.5553333 128.864,22.898 C128.864,24.342 129.111,25.6656667 129.605,26.869 C130.099,28.0723333 130.789333,29.1173333 131.676,30.004 C132.562667,30.8906667 133.607667,31.581 134.811,32.075 C136.014333,32.569 137.325333,32.816 138.744,32.816 Z M143.038,20.504 L134.032,20.504 C134.361333,19.4146667 134.931333,18.566 135.742,17.958 C136.552667,17.35 137.49,17.046 138.554,17.046 C139.314,17.046 139.966333,17.16 140.511,17.388 C141.055667,17.616 141.511667,17.9073333 141.879,18.262 C142.246333,18.6166667 142.525,18.9966667 142.715,19.402 C142.905,19.8073333 143.012667,20.1746667 143.038,20.504 L143.038,20.504 Z M156.034,32.208 L156.034,23.088 C156.034,22.328 156.141667,21.625 156.357,20.979 C156.572333,20.333 156.876333,19.7693333 157.269,19.288 C157.661667,18.8066667 158.136667,18.433 158.694,18.167 C159.251333,17.901 159.872,17.768 160.556,17.768 C161.088,17.768 161.537667,17.8123333 161.905,17.901 C162.272333,17.9896667 162.608,18.11 162.912,18.262 L162.912,18.262 L164.242,13.74 C163.912667,13.5373333 163.513667,13.3726667 163.045,13.246 C162.576333,13.1193333 162.012667,13.056 161.354,13.056 C160.822,13.056 160.283667,13.132 159.739,13.284 C159.194333,13.436 158.687667,13.6513333 158.219,13.93 C157.750333,14.2086667 157.326,14.538 156.946,14.918 C156.566,15.298 156.262,15.716 156.034,16.172 L156.034,16.172 L155.73,16.172 L155.73,13.588 L151.056,13.588 L151.056,32.208 L156.034,32.208 Z M172.26,32.208 L172.26,21.34 L183.166,21.34 L183.166,16.476 L172.26,16.476 L172.26,9.864 L184.382,9.864 L184.382,5 L167.13,5 L167.13,32.208 L172.26,32.208 Z M192.704,32.208 L192.704,5 L187.726,5 L187.726,32.208 L192.704,32.208 Z M205.586,32.816 C207.03,32.816 208.353667,32.569 209.557,32.075 C210.760333,31.581 211.799,30.897 212.673,30.023 C213.547,29.149 214.231,28.104 214.725,26.888 C215.219,25.672 215.466,24.342 215.466,22.898 C215.466,21.454 215.219,20.124 214.725,18.908 C214.231,17.692 213.547,16.647 212.673,15.773 C211.799,14.899 210.760333,14.215 209.557,13.721 C208.353667,13.227 207.03,12.98 205.586,12.98 C204.142,12.98 202.818333,13.227 201.615,13.721 C200.411667,14.215 199.373,14.899 198.499,15.773 C197.625,16.647 196.941,17.692 196.447,18.908 C195.953,20.124 195.706,21.454 195.706,22.898 C195.706,24.342 195.953,25.672 196.447,26.888 C196.941,28.104 197.625,29.149 198.499,30.023 C199.373,30.897 200.411667,31.581 201.615,32.075 C202.818333,32.569 204.142,32.816 205.586,32.816 Z M205.586,28.218 C204.927333,28.218 204.306667,28.0976667 203.724,27.857 C203.141333,27.6163333 202.622,27.268 202.166,26.812 C201.71,26.356 201.349,25.7986667 201.083,25.14 C200.817,24.4813333 200.684,23.734 200.684,22.898 C200.684,22.062 200.817,21.3146667 201.083,20.656 C201.349,19.9973333 201.71,19.44 202.166,18.984 C202.622,18.528 203.141333,18.1796667 203.724,17.939 C204.306667,17.6983333 204.927333,17.578 205.586,17.578 C206.219333,17.578 206.833667,17.6983333 207.429,17.939 C208.024333,18.1796667 208.55,18.528 209.006,18.984 C209.462,19.44 209.823,19.9973333 210.089,20.656 C210.355,21.3146667 210.488,22.062 210.488,22.898 C210.488,23.734 210.355,24.4813333 210.089,25.14 C209.823,25.7986667 209.462,26.356 209.006,26.812 C208.55,27.268 208.024333,27.6163333 207.429,27.857 C206.833667,28.0976667 206.219333,28.218 205.586,28.218 Z M227.55,32.208 L231.274,20.466 L231.54,20.466 L235.264,32.208 L240.622,32.208 L246.588,13.588 L241.078,13.588 L238.038,25.254 L237.772,25.254 L234.048,13.588 L228.918,13.588 L225.232,25.254 L224.966,25.254 L221.888,13.588 L216.302,13.588 L222.268,32.208 L227.55,32.208 Z" id="FlutterFlow" fill="#101213"></path>
            </g>
        </g>
    </g>
</svg>